<svg xmlns="http://www.w3.org/2000/svg" width="100.623" height="100.011"><defs><style>.e{fill:#cf7270}</style></defs><path d="M-287.463 498.174c43.239-5.163 60.928 28.879 61.741 52.062.434 12.385-6.612 28.611-15.881 36.317-9.1 7.561-26.311 10.317-37.9 11.012-21.212 1.271-43.02-10.071-46.68-48.019-1.517-15.66 8.999-47.823 38.72-51.372Z" style="fill:#fff" transform="translate(326.326 -497.649)"/><path d="M-253.728 575.9c2.041-.542 1.51-3.437-.482-3.559a47.4 47.4 0 0 0-14.815 1.4 24.4 24.4 0 0 1 12.174-7.938 1.535 1.535 0 0 0-.406-3 28.731 28.731 0 0 0-5.128.4 83.76 83.76 0 0 1 7.637-8.119c1.659-1.593-.744-3.779-2.454-2.454a38.682 38.682 0 0 0-7.815 8.065c.327-2.936.682-5.875.861-8.824.138-2.277-3.6-2.831-4.027-.545-.692 3.752-1.082 7.571-1.6 11.35a17.846 17.846 0 0 1-2.655 7.541 70.524 70.524 0 0 1-.01-5.822c.043-1.066-1.511-1.71-2.067-.856-4.424 6.8-8.848 14.3-11.643 21.8-.001-.007 12.604-7.121 32.43-9.439Z" style="fill:#f1e9e9" transform="translate(326.326 -497.649)"/><path d="m-299.078 550 3.782 10.608a15.776 15.776 0 0 0-6.291 12.832c.157 8.491 3.737 10.928 11.1 11.92s15.986-5.01 15.569-11.581-8.45-12.214-8.45-12.214l8.2-8.717Z" style="fill:#f9ae61" transform="translate(326.326 -497.649)"/><path d="M-299.911 572.014c9.776-5.488 14.258 3.908 21.3-2.306" style="stroke:#fff;fill:none;stroke-linecap:round;stroke-linejoin:round;stroke-width:1.336px" transform="translate(326.326 -497.649)"/><path d="M44.213 59.445a14.384 14.384 0 0 1-.439-5.125l-3.079-.367a17.874 17.874 0 0 0 .084 4.633c.716 4.436 3.994 2.84 3.434.859ZM50.163 55.081l-5.211-.621c.415 1.7.973 3.866 1.535 5.7l4.034-4.285a91.223 91.223 0 0 0-.358-.794Z" class="e"/><path d="M-264.491 512.617c-.844 1.776-.955 2.815-1.7 3.97-.793 1.226-3.661 2.5-.9-4.294 1.086-2.668-2-4.1-3.627-2.209s-1.727 7.031-1.391 9.746c.4 3.251-2.575 2.96-2.575-.191a49.689 49.689 0 0 1 .751-5.63 2.177 2.177 0 0 0-4.186-1.143c-1.027 2.338.786 9.19 1.122 11.906.228 1.843-1.639 2.615-2.231 1.444-.756-1.5-1.289-3.875-1.562-7.721-.2-2.832-4.126-1.586-4.292.286-.327 3.667 2.081 7.489 3.6 10.918.786 1.769-1.644 3.346-2.821 2.088-1.374-1.469-2.4-3.657-2.785-7.664-.265-2.784-4.674-2.1-4.483.572.619 8.672 6.582 12.115 6.582 12.115a18.472 18.472 0 0 1-8.681-.476c-3.046-1.039-6.586 2.579-.388 4.494-4.712.459-5.025 4.15-.989 4.047 6.693-.169 13.983-6.384 13.983-6.384s4.36-9.677 17.316-20.606a10.1 10.1 0 0 1 2.608-4.351c1.625-1.717-2.217-3.305-3.351-.917Z" style="fill:#7a9e63" transform="translate(326.326 -497.649)"/><path d="M-253.6 519.735c-4.6.074-9.8 2.882-9.8 2.882a29.806 29.806 0 0 1 5.438-4.572c3.791-2.317 1.5-4.511-1.212-3.272a23.632 23.632 0 0 0-4.584 2.945c-14.242 11.615-17.3 20.773-17.3 20.773-2.767 5.435-4.362 11.387-3.585 16.2.715 4.436 3.993 2.84 3.434.858a15.018 15.018 0 0 1 .058-7.882s2.082 9.393 3.425 11.81 4.873 1.136 4.843-.81c-.053-3.447-2.56-7.453-5.644-14.779-.4-.953.765-1.588 1.557-.4 1.505 2.256 4.788 6.271 7.322 7.1 3.379 1.109 3.241-5.419 1.521-6.473a64.929 64.929 0 0 1-6.09-4.45c-1.131-.95.2-2.285 1.158-1.9 1.8.72 5.047 3.164 7.309 4.085 3.113 1.267 6.428-2.94 4.52-4.848-2.387-2.387-4.977-2.759-6.913-3.749-1.549-.791.045-2.547 1.381-2.547 1.8 0 5.2.988 7.921 1.743s3.285-3.2 1.523-4.223c-1.672-.692-3.625-.668-5.819-.763-1.814-.079-1.837-1.719-.543-2.1s6.091-.555 9.382-1.062 2.698-4.601.698-4.566Z" style="fill:#457f44" transform="translate(326.326 -497.649)"/><path d="M-291.2 580.922s-2.5-37.954 26.229-62.137" style="stroke:#2d313f;fill:none;stroke-linecap:round;stroke-linejoin:round;stroke-width:1.336px" transform="translate(326.326 -497.649)"/></svg>